<svg xmlns="http://www.w3.org/2000/svg" width="512" height="512" viewBox="0 0 512 512" fill="none">
  <rect width="512" height="512" rx="128" fill="#4F46E5"/>
  <path d="M396 116H116C89.49 116 68 137.49 68 164V348C68 374.51 89.49 396 116 396H160L211 448H301L352 396H396C422.51 396 444 374.51 444 348V164C444 137.49 422.51 116 396 116Z" fill="white"/>
  <path d="M396 156H116C111.58 156 108 159.582 108 164V348C108 352.418 111.582 356 116 356H180L231 408H281L332 356H396C400.418 356 404 352.418 404 348V164C404 159.582 400.418 156 396 156Z" fill="#4F46E5"/>
  <circle cx="160" cy="256" r="20" fill="white"/>
  <circle cx="256" cy="256" r="20" fill="white"/>
  <circle cx="352" cy="256" r="20" fill="white"/>
</svg>
